<?xml version="1.0" encoding="UTF-8" standalone="no"?>
<!DOCTYPE svg PUBLIC "-//W3C//DTD SVG 1.1//EN"
 "http://www.w3.org/Graphics/SVG/1.1/DTD/svg11.dtd">
<!-- Generated by graphviz version 2.38.0 (20140413.2041)
 -->
<!-- Title: %3 Pages: 1 -->
<svg width="1348pt" height="2660pt"
 viewBox="0.00 0.00 1348.20 2660.00" xmlns="http://www.w3.org/2000/svg" xmlns:xlink="http://www.w3.org/1999/xlink">
<g id="graph0" class="graph" transform="scale(1 1) rotate(0) translate(4 2656)">
<title>%3</title>
<polygon fill="white" stroke="none" points="-4,4 -4,-2656 1344.2,-2656 1344.2,4 -4,4"/>
<!-- unhappy -->
<g id="node1" class="node"><title>unhappy</title>
<path fill="none" stroke="black" d="M370.654,-2652C370.654,-2652 278.812,-2652 278.812,-2652 272.812,-2652 266.812,-2646 266.812,-2640 266.812,-2640 266.812,-2628 266.812,-2628 266.812,-2622 272.812,-2616 278.812,-2616 278.812,-2616 370.654,-2616 370.654,-2616 376.654,-2616 382.654,-2622 382.654,-2628 382.654,-2628 382.654,-2640 382.654,-2640 382.654,-2646 376.654,-2652 370.654,-2652"/>
<text text-anchor="middle" x="324.733" y="-2629.8" font-family="Times,serif" font-size="14.00">React sizi üzüyor.</text>
</g>
<!-- are_you_using_react_boilerplates -->
<g id="node2" class="node"><title>are_you_using_react_boilerplates</title>
<polygon fill="none" stroke="black" points="324.733,-2579 104.253,-2543 324.733,-2507 545.214,-2543 324.733,-2579"/>
<text text-anchor="middle" x="324.733" y="-2545.8" font-family="Times,serif" font-size="14.00">React&#39;ı taslak projelerden</text>
<text text-anchor="middle" x="324.733" y="-2531.8" font-family="Times,serif" font-size="14.00"> &#160;&#160;&#160;kopyalayarak mı öğreniyorsunuz?</text>
</g>
<!-- unhappy&#45;&gt;are_you_using_react_boilerplates -->
<g id="edge1" class="edge"><title>unhappy&#45;&gt;are_you_using_react_boilerplates</title>
<path fill="none" stroke="black" d="M324.733,-2615.84C324.733,-2608.2 324.733,-2598.8 324.733,-2589.35"/>
<polygon fill="black" stroke="black" points="328.233,-2589.16 324.733,-2579.16 321.233,-2589.16 328.233,-2589.16"/>
</g>
<!-- boilerplates_dont_teach -->
<g id="node3" class="node"><title>boilerplates_dont_teach</title>
<polygon fill="none" stroke="black" points="309.701,-2457 -0.233751,-2457 -0.233751,-2197 309.701,-2197 309.701,-2457"/>
<text text-anchor="middle" x="154.733" y="-2441.8" font-family="Times,serif" font-size="14.00">React&#39;ı taslak projelerden kopyalayarak</text>
<text text-anchor="middle" x="154.733" y="-2427.8" font-family="Times,serif" font-size="14.00"> &#160;&#160;&#160;öğrenmek, yemek pişirmeyi güzel restoranlarda</text>
<text text-anchor="middle" x="154.733" y="-2413.8" font-family="Times,serif" font-size="14.00"> &#160;&#160;&#160;yemek yiyerek öğrenmeye benzer ve işe yaramaz.</text>
<text text-anchor="middle" x="154.733" y="-2399.8" font-family="Times,serif" font-size="14.00"> &#160;&#160;&#160;Bir şeyleri atlama korkusu olmadan işin temelini</text>
<text text-anchor="middle" x="154.733" y="-2385.8" font-family="Times,serif" font-size="14.00"> &#160;&#160;&#160;öğrenmelisiniz. Bu atlama korkusu yersizdir.</text>
<text text-anchor="middle" x="154.733" y="-2371.8" font-family="Times,serif" font-size="14.00"> &#160;&#160;&#160;Şunu unutmayın ki insanlar taslak projeleri ne</text>
<text text-anchor="middle" x="154.733" y="-2357.8" font-family="Times,serif" font-size="14.00"> &#160;&#160;&#160;bildiklerini göstermek için kullanırlar,</text>
<text text-anchor="middle" x="154.733" y="-2343.8" font-family="Times,serif" font-size="14.00"> &#160;&#160;&#160;öğrenmenize yardımcı olmak için değil. Taslak</text>
<text text-anchor="middle" x="154.733" y="-2329.8" font-family="Times,serif" font-size="14.00"> &#160;&#160;&#160;projeler usta kullanıcılar tarafından onların</text>
<text text-anchor="middle" x="154.733" y="-2315.8" font-family="Times,serif" font-size="14.00"> &#160;&#160;&#160;anlayabileceği düzeyde oluşturulur, ve genelde</text>
<text text-anchor="middle" x="154.733" y="-2301.8" font-family="Times,serif" font-size="14.00"> &#160;&#160;&#160;kabullenmek istemedikleri kadar deneyseldir.</text>
<text text-anchor="middle" x="154.733" y="-2287.8" font-family="Times,serif" font-size="14.00"> &#160;&#160;&#160;Taslak projeler dikkat çekmek için birbirleriyle</text>
<text text-anchor="middle" x="154.733" y="-2273.8" font-family="Times,serif" font-size="14.00"> &#160;&#160;&#160;rekabet halindedir ki bu da gereksizce dolu</text>
<text text-anchor="middle" x="154.733" y="-2259.8" font-family="Times,serif" font-size="14.00"> &#160;&#160;&#160;olmalarına sebep olur. Eğer gerçekten React</text>
<text text-anchor="middle" x="154.733" y="-2245.8" font-family="Times,serif" font-size="14.00"> &#160;&#160;&#160;öğrenmek istiyorsanız Pete Hunt&#39;ın rehberini</text>
<text text-anchor="middle" x="154.733" y="-2231.8" font-family="Times,serif" font-size="14.00"> &#160;&#160;&#160;izleyin: https://github.com/petehunt/react&#45;howto.</text>
<text text-anchor="middle" x="154.733" y="-2217.8" font-family="Times,serif" font-size="14.00"> &#160;&#160;&#160;Taslak projelere de kendiniz bir tane yaratıncaya</text>
<text text-anchor="middle" x="154.733" y="-2203.8" font-family="Times,serif" font-size="14.00"> &#160;&#160;&#160;kadar bakmayın.</text>
</g>
<!-- are_you_using_react_boilerplates&#45;&gt;boilerplates_dont_teach -->
<g id="edge2" class="edge"><title>are_you_using_react_boilerplates&#45;&gt;boilerplates_dont_teach</title>
<path fill="none" stroke="black" d="M300.014,-2510.88C289.792,-2498.02 277.174,-2482.13 263.679,-2465.14"/>
<polygon fill="black" stroke="black" points="266.384,-2462.92 257.423,-2457.27 260.902,-2467.28 266.384,-2462.92"/>
<text text-anchor="middle" x="291.392" y="-2477.8" font-family="Times,serif" font-size="14.00">evet</text>
</g>
<!-- steal_from_boilerplates -->
<g id="node4" class="node"><title>steal_from_boilerplates</title>
<polygon fill="none" stroke="black" points="663.717,-2408 327.75,-2408 327.75,-2246 663.717,-2246 663.717,-2408"/>
<text text-anchor="middle" x="495.733" y="-2392.8" font-family="Times,serif" font-size="14.00">Taslak projeler içerdikleri teknolojileri</text>
<text text-anchor="middle" x="495.733" y="-2378.8" font-family="Times,serif" font-size="14.00"> &#160;&#160;&#160;öğrenme konusunda iyi olmasalar da, bu teknolojilerin</text>
<text text-anchor="middle" x="495.733" y="-2364.8" font-family="Times,serif" font-size="14.00"> &#160;&#160;&#160;nasıl bir araya getirildiklerini görme konusunda</text>
<text text-anchor="middle" x="495.733" y="-2350.8" font-family="Times,serif" font-size="14.00"> &#160;&#160;&#160;kullanışlı olabilirler tabi ki siz her birini</text>
<text text-anchor="middle" x="495.733" y="-2336.8" font-family="Times,serif" font-size="14.00"> &#160;&#160;&#160;ayrı ayrı iyi öğrendikten *sonra*. Yeni teknolojileri</text>
<text text-anchor="middle" x="495.733" y="-2322.8" font-family="Times,serif" font-size="14.00"> &#160;&#160;&#160;keşfetme konusunda harika bir yoldur ama hepsini</text>
<text text-anchor="middle" x="495.733" y="-2308.8" font-family="Times,serif" font-size="14.00"> &#160;&#160;&#160;kullanmak zorunda falan hissetmemelisiniz.</text>
<text text-anchor="middle" x="495.733" y="-2294.8" font-family="Times,serif" font-size="14.00"> &#160;&#160;&#160;Taslak projelerden tamamen vazgeçmeyin.</text>
<text text-anchor="middle" x="495.733" y="-2280.8" font-family="Times,serif" font-size="14.00"> &#160;&#160;&#160;Şunu aklınızdan çıkarmayın, taslak projeler çeşitli</text>
<text text-anchor="middle" x="495.733" y="-2266.8" font-family="Times,serif" font-size="14.00"> &#160;&#160;&#160;numaralar içerir ama asla uygulamanız</text>
<text text-anchor="middle" x="495.733" y="-2252.8" font-family="Times,serif" font-size="14.00"> &#160;&#160;&#160;için sağlam bir temel oluşturmaz.</text>
</g>
<!-- are_you_using_react_boilerplates&#45;&gt;steal_from_boilerplates -->
<g id="edge3" class="edge"><title>are_you_using_react_boilerplates&#45;&gt;steal_from_boilerplates</title>
<path fill="none" stroke="black" d="M349.598,-2510.88C369.493,-2485.98 398.413,-2449.79 425.285,-2416.16"/>
<polygon fill="black" stroke="black" points="428.194,-2418.13 431.702,-2408.13 422.725,-2413.76 428.194,-2418.13"/>
<text text-anchor="middle" x="390.116" y="-2477.8" font-family="Times,serif" font-size="14.00">hayır</text>
</g>
<!-- are_you_using_flux -->
<g id="node5" class="node"><title>are_you_using_flux</title>
<polygon fill="none" stroke="black" points="364.733,-2160 135.022,-2124 364.733,-2088 594.444,-2124 364.733,-2160"/>
<text text-anchor="middle" x="364.733" y="-2126.8" font-family="Times,serif" font-size="14.00">Flux (veya Redux)</text>
<text text-anchor="middle" x="364.733" y="-2112.8" font-family="Times,serif" font-size="14.00"> &#160;&#160;&#160;kütüphanesini kullanıyor musunuz?</text>
</g>
<!-- boilerplates_dont_teach&#45;&gt;are_you_using_flux -->
<g id="edge4" class="edge"><title>boilerplates_dont_teach&#45;&gt;are_you_using_flux</title>
<path fill="none" stroke="black" d="M289.512,-2197C302.621,-2184.45 315.056,-2172.55 325.9,-2162.17"/>
<polygon fill="black" stroke="black" points="328.339,-2164.68 333.143,-2155.24 323.499,-2159.62 328.339,-2164.68"/>
</g>
<!-- steal_from_boilerplates&#45;&gt;are_you_using_flux -->
<g id="edge5" class="edge"><title>steal_from_boilerplates&#45;&gt;are_you_using_flux</title>
<path fill="none" stroke="black" d="M443.582,-2245.98C425.551,-2218.32 406.11,-2188.49 391.044,-2165.37"/>
<polygon fill="black" stroke="black" points="393.888,-2163.32 385.496,-2156.86 388.024,-2167.15 393.888,-2163.32"/>
</g>
<!-- is_too_much_flux -->
<g id="node6" class="node"><title>is_too_much_flux</title>
<polygon fill="none" stroke="black" points="243.733,-2038 68.7666,-1988 243.733,-1938 418.7,-1988 243.733,-2038"/>
<text text-anchor="middle" x="243.733" y="-1997.8" font-family="Times,serif" font-size="14.00">Size çok da şey</text>
<text text-anchor="middle" x="243.733" y="-1983.8" font-family="Times,serif" font-size="14.00"> &#160;&#160;&#160;katmayan çok fazla taslak</text>
<text text-anchor="middle" x="243.733" y="-1969.8" font-family="Times,serif" font-size="14.00"> &#160;&#160;&#160;kod ekleniyor mu?</text>
</g>
<!-- are_you_using_flux&#45;&gt;is_too_much_flux -->
<g id="edge6" class="edge"><title>are_you_using_flux&#45;&gt;is_too_much_flux</title>
<path fill="none" stroke="black" d="M336.974,-2092.26C321.955,-2075.63 303.085,-2054.73 286.256,-2036.09"/>
<polygon fill="black" stroke="black" points="288.485,-2033.34 279.185,-2028.26 283.29,-2038.03 288.485,-2033.34"/>
<text text-anchor="middle" x="327.392" y="-2058.8" font-family="Times,serif" font-size="14.00">evet</text>
</g>
<!-- is_not_enough_flux -->
<g id="node7" class="node"><title>is_not_enough_flux</title>
<polygon fill="none" stroke="black" points="683.733,-2038 436.659,-1988 683.733,-1938 930.808,-1988 683.733,-2038"/>
<text text-anchor="middle" x="683.733" y="-1997.8" font-family="Times,serif" font-size="14.00">Bileşen hiyerarşinizde içi dolu</text>
<text text-anchor="middle" x="683.733" y="-1983.8" font-family="Times,serif" font-size="14.00"> &#160;&#160;&#160;durum içeren bileşenler var ve genelde</text>
<text text-anchor="middle" x="683.733" y="-1969.8" font-family="Times,serif" font-size="14.00"> &#160;&#160;&#160;bugların kaynağı burası mı?</text>
</g>
<!-- are_you_using_flux&#45;&gt;is_not_enough_flux -->
<g id="edge7" class="edge"><title>are_you_using_flux&#45;&gt;is_not_enough_flux</title>
<path fill="none" stroke="black" d="M425.486,-2097.48C473.59,-2077.27 541.451,-2048.77 595.537,-2026.05"/>
<polygon fill="black" stroke="black" points="596.915,-2029.27 604.779,-2022.17 594.204,-2022.81 596.915,-2029.27"/>
<text text-anchor="middle" x="539.116" y="-2058.8" font-family="Times,serif" font-size="14.00">hayır</text>
</g>
<!-- remove_flux -->
<g id="node8" class="node"><title>remove_flux</title>
<polygon fill="none" stroke="black" points="400.737,-1888 134.729,-1888 134.729,-1810 400.737,-1810 400.737,-1888"/>
<text text-anchor="middle" x="267.733" y="-1872.8" font-family="Times,serif" font-size="14.00">Flux kütüphanesini çıkarın.</text>
<text text-anchor="middle" x="267.733" y="-1858.8" font-family="Times,serif" font-size="14.00"> &#160;&#160;&#160;Resmi döküman olan “Thinking in React”</text>
<text text-anchor="middle" x="267.733" y="-1844.8" font-family="Times,serif" font-size="14.00"> &#160;&#160;&#160;makalesini okursanız sadece React ile</text>
<text text-anchor="middle" x="267.733" y="-1830.8" font-family="Times,serif" font-size="14.00"> &#160;&#160;&#160;nasıl bir mimari kurabileceğiniz</text>
<text text-anchor="middle" x="267.733" y="-1816.8" font-family="Times,serif" font-size="14.00"> &#160;&#160;&#160;konusunda size fikir verebilir.</text>
</g>
<!-- is_too_much_flux&#45;&gt;remove_flux -->
<g id="edge8" class="edge"><title>is_too_much_flux&#45;&gt;remove_flux</title>
<path fill="none" stroke="black" d="M251.926,-1940.24C254.285,-1926.77 256.863,-1912.05 259.24,-1898.49"/>
<polygon fill="black" stroke="black" points="262.733,-1898.83 261.011,-1888.37 255.838,-1897.62 262.733,-1898.83"/>
<text text-anchor="middle" x="270.392" y="-1908.8" font-family="Times,serif" font-size="14.00">evet</text>
</g>
<!-- are_you_using_bundler -->
<g id="node9" class="node"><title>are_you_using_bundler</title>
<polygon fill="none" stroke="black" points="471.733,-1773 285.591,-1709 471.733,-1645 657.876,-1709 471.733,-1773"/>
<text text-anchor="middle" x="471.733" y="-1725.8" font-family="Times,serif" font-size="14.00">Herhangi bir</text>
<text text-anchor="middle" x="471.733" y="-1711.8" font-family="Times,serif" font-size="14.00"> &#160;&#160;&#160;Javascript paketleyicisi</text>
<text text-anchor="middle" x="471.733" y="-1697.8" font-family="Times,serif" font-size="14.00"> &#160;&#160;&#160;kullanıyor musunuz</text>
<text text-anchor="middle" x="471.733" y="-1683.8" font-family="Times,serif" font-size="14.00"> &#160;&#160;&#160;(ör: Webpack, Browserify)?</text>
</g>
<!-- is_too_much_flux&#45;&gt;are_you_using_bundler -->
<g id="edge9" class="edge"><title>is_too_much_flux&#45;&gt;are_you_using_bundler</title>
<path fill="none" stroke="black" d="M315.043,-1958.25C347.801,-1941.92 384.816,-1918.56 409.733,-1888 423.979,-1870.53 440.848,-1820.31 453.391,-1777.65"/>
<polygon fill="black" stroke="black" points="456.813,-1778.42 456.24,-1767.84 450.09,-1776.47 456.813,-1778.42"/>
<text text-anchor="middle" x="458.116" y="-1844.8" font-family="Times,serif" font-size="14.00">hayır</text>
</g>
<!-- is_not_enough_flux&#45;&gt;are_you_using_bundler -->
<g id="edge11" class="edge"><title>is_not_enough_flux&#45;&gt;are_you_using_bundler</title>
<path fill="none" stroke="black" d="M600.372,-1954.85C569.385,-1939.04 536.551,-1917.03 514.968,-1888 492.346,-1857.57 481.418,-1816.87 476.198,-1782.08"/>
<polygon fill="black" stroke="black" points="479.637,-1781.39 474.813,-1771.96 472.702,-1782.34 479.637,-1781.39"/>
<text text-anchor="middle" x="530.116" y="-1844.8" font-family="Times,serif" font-size="14.00">hayır</text>
</g>
<!-- add_flux -->
<g id="node10" class="node"><title>add_flux</title>
<polygon fill="none" stroke="black" points="793.062,-1881 552.405,-1881 552.405,-1817 793.062,-1817 793.062,-1881"/>
<text text-anchor="middle" x="672.733" y="-1865.8" font-family="Times,serif" font-size="14.00">Flux kütüphanesi eklemeyi düşünün.</text>
<text text-anchor="middle" x="672.733" y="-1851.8" font-family="Times,serif" font-size="14.00"> &#160;&#160;&#160;Farklı bileşenler arasında paylaşılan</text>
<text text-anchor="middle" x="672.733" y="-1837.8" font-family="Times,serif" font-size="14.00"> &#160;&#160;&#160;durumu dışarı çıkarmayı ve tutarlı bir</text>
<text text-anchor="middle" x="672.733" y="-1823.8" font-family="Times,serif" font-size="14.00"> &#160;&#160;&#160;şekilde güncellenmesini sağlayabilir.</text>
</g>
<!-- is_not_enough_flux&#45;&gt;add_flux -->
<g id="edge10" class="edge"><title>is_not_enough_flux&#45;&gt;add_flux</title>
<path fill="none" stroke="black" d="M679.855,-1938.7C678.609,-1923.18 677.24,-1906.13 676.039,-1891.17"/>
<polygon fill="black" stroke="black" points="679.527,-1890.88 675.238,-1881.19 672.549,-1891.44 679.527,-1890.88"/>
<text text-anchor="middle" x="689.392" y="-1908.8" font-family="Times,serif" font-size="14.00">evet</text>
</g>
<!-- remove_flux&#45;&gt;are_you_using_bundler -->
<g id="edge13" class="edge"><title>remove_flux&#45;&gt;are_you_using_bundler</title>
<path fill="none" stroke="black" d="M324.017,-1809.93C347.964,-1793.73 376.149,-1774.66 401.444,-1757.55"/>
<polygon fill="black" stroke="black" points="403.58,-1760.33 409.902,-1751.83 399.658,-1754.53 403.58,-1760.33"/>
</g>
<!-- are_you_working_on_production_app_with_bundler -->
<g id="node11" class="node"><title>are_you_working_on_production_app_with_bundler</title>
<polygon fill="none" stroke="black" points="403.733,-1595 300.274,-1559 403.733,-1523 507.192,-1559 403.733,-1595"/>
<text text-anchor="middle" x="403.733" y="-1561.8" font-family="Times,serif" font-size="14.00">Canlı ortamınız</text>
<text text-anchor="middle" x="403.733" y="-1547.8" font-family="Times,serif" font-size="14.00"> &#160;&#160;&#160;var mı?</text>
</g>
<!-- are_you_using_bundler&#45;&gt;are_you_working_on_production_app_with_bundler -->
<g id="edge14" class="edge"><title>are_you_using_bundler&#45;&gt;are_you_working_on_production_app_with_bundler</title>
<path fill="none" stroke="black" d="M446.606,-1653.31C438.446,-1635.55 429.554,-1616.2 421.993,-1599.74"/>
<polygon fill="black" stroke="black" points="425.067,-1598.05 417.712,-1590.42 418.706,-1600.97 425.067,-1598.05"/>
<text text-anchor="middle" x="445.392" y="-1615.8" font-family="Times,serif" font-size="14.00">evet</text>
</g>
<!-- are_you_working_on_production_app_without_bundler -->
<g id="node12" class="node"><title>are_you_working_on_production_app_without_bundler</title>
<polygon fill="none" stroke="black" points="628.733,-1595 525.274,-1559 628.733,-1523 732.192,-1559 628.733,-1595"/>
<text text-anchor="middle" x="628.733" y="-1561.8" font-family="Times,serif" font-size="14.00">Canlı ortamınız</text>
<text text-anchor="middle" x="628.733" y="-1547.8" font-family="Times,serif" font-size="14.00"> &#160;&#160;&#160;var mı?</text>
</g>
<!-- are_you_using_bundler&#45;&gt;are_you_working_on_production_app_without_bundler -->
<g id="edge15" class="edge"><title>are_you_using_bundler&#45;&gt;are_you_working_on_production_app_without_bundler</title>
<path fill="none" stroke="black" d="M520.978,-1661.58C544.79,-1639.13 572.791,-1612.74 594.281,-1592.48"/>
<polygon fill="black" stroke="black" points="596.718,-1594.99 601.593,-1585.58 591.916,-1589.9 596.718,-1594.99"/>
<text text-anchor="middle" x="584.116" y="-1615.8" font-family="Times,serif" font-size="14.00">hayır</text>
</g>
<!-- add_flux&#45;&gt;are_you_using_bundler -->
<g id="edge12" class="edge"><title>add_flux&#45;&gt;are_you_using_bundler</title>
<path fill="none" stroke="black" d="M627.374,-1816.86C601.977,-1799.42 569.775,-1777.31 541.259,-1757.73"/>
<polygon fill="black" stroke="black" points="543.158,-1754.79 532.933,-1752.02 539.196,-1760.56 543.158,-1754.79"/>
</g>
<!-- do_you_know_es2015 -->
<g id="node13" class="node"><title>do_you_know_es2015</title>
<polygon fill="none" stroke="black" points="565.733,-1316 350.036,-1266 565.733,-1216 781.431,-1266 565.733,-1316"/>
<text text-anchor="middle" x="565.733" y="-1275.8" font-family="Times,serif" font-size="14.00">ES2015 özelliklerini kullanırken</text>
<text text-anchor="middle" x="565.733" y="-1261.8" font-family="Times,serif" font-size="14.00"> &#160;&#160;&#160;sorun yaşıyor musunuz?</text>
<text text-anchor="middle" x="565.733" y="-1247.8" font-family="Times,serif" font-size="14.00"> &#160;&#160;&#160;(ör: sınıflar ve ok fonksiyonları)?</text>
</g>
<!-- are_you_working_on_production_app_with_bundler&#45;&gt;do_you_know_es2015 -->
<g id="edge16" class="edge"><title>are_you_working_on_production_app_with_bundler&#45;&gt;do_you_know_es2015</title>
<path fill="none" stroke="black" d="M335.836,-1546.49C293.375,-1535.41 241.881,-1513.98 215.416,-1473 186.483,-1428.2 182.505,-1394.97 215.416,-1353 240.807,-1320.62 332.436,-1298.82 415.612,-1285.28"/>
<polygon fill="black" stroke="black" points="416.385,-1288.7 425.708,-1283.66 415.281,-1281.78 416.385,-1288.7"/>
<text text-anchor="middle" x="227.392" y="-1408.8" font-family="Times,serif" font-size="14.00">evet</text>
</g>
<!-- remove_bundler -->
<g id="node14" class="node"><title>remove_bundler</title>
<polygon fill="none" stroke="black" points="587.9,-1466 247.567,-1466 247.567,-1360 587.9,-1360 587.9,-1466"/>
<text text-anchor="middle" x="417.733" y="-1450.8" font-family="Times,serif" font-size="14.00">Eğer sadece React öğreniyorsanız</text>
<text text-anchor="middle" x="417.733" y="-1436.8" font-family="Times,serif" font-size="14.00"> &#160;&#160;&#160;herhangi bir paketleyiciye ihtiyacınız yok.</text>
<text text-anchor="middle" x="417.733" y="-1422.8" font-family="Times,serif" font-size="14.00"> &#160;&#160;&#160;Şunu kopyalayın https://github.com/jarsbe/react&#45;simple</text>
<text text-anchor="middle" x="417.733" y="-1408.8" font-family="Times,serif" font-size="14.00"> &#160;&#160;&#160;ve yapım adımı olmadan hacklemeye başlayın.</text>
<text text-anchor="middle" x="417.733" y="-1394.8" font-family="Times,serif" font-size="14.00"> &#160;&#160;&#160;React kullanmak konusunda yetkin oluncaya ve</text>
<text text-anchor="middle" x="417.733" y="-1380.8" font-family="Times,serif" font-size="14.00"> &#160;&#160;&#160;sistem modüllerini, paketleyicileri öğreninceye</text>
<text text-anchor="middle" x="417.733" y="-1366.8" font-family="Times,serif" font-size="14.00"> &#160;&#160;&#160;kadar &lt;script&gt; etiketini kullanabilirsiniz.</text>
</g>
<!-- are_you_working_on_production_app_with_bundler&#45;&gt;remove_bundler -->
<g id="edge17" class="edge"><title>are_you_working_on_production_app_with_bundler&#45;&gt;remove_bundler</title>
<path fill="none" stroke="black" d="M407.051,-1523.87C408.437,-1509.62 410.093,-1492.59 411.682,-1476.25"/>
<polygon fill="black" stroke="black" points="415.175,-1476.48 412.659,-1466.19 408.208,-1475.8 415.175,-1476.48"/>
<text text-anchor="middle" x="425.116" y="-1493.8" font-family="Times,serif" font-size="14.00">hayır</text>
</g>
<!-- are_you_working_on_production_app_without_bundler&#45;&gt;do_you_know_es2015 -->
<g id="edge19" class="edge"><title>are_you_working_on_production_app_without_bundler&#45;&gt;do_you_know_es2015</title>
<path fill="none" stroke="black" d="M625.424,-1523.86C620.986,-1482.84 611.863,-1412.15 596.733,-1353 594.111,-1342.75 590.751,-1332 587.216,-1321.71"/>
<polygon fill="black" stroke="black" points="590.423,-1320.28 583.791,-1312.02 583.823,-1322.61 590.423,-1320.28"/>
<text text-anchor="middle" x="633.116" y="-1408.8" font-family="Times,serif" font-size="14.00">hayır</text>
</g>
<!-- add_bundler -->
<g id="node15" class="node"><title>add_bundler</title>
<polygon fill="none" stroke="black" points="937.413,-1473 670.054,-1473 670.054,-1353 937.413,-1353 937.413,-1473"/>
<text text-anchor="middle" x="803.733" y="-1457.8" font-family="Times,serif" font-size="14.00">Javascript kodunu verimli sunabilmek</text>
<text text-anchor="middle" x="803.733" y="-1443.8" font-family="Times,serif" font-size="14.00"> &#160;&#160;&#160;ve bağımlılıkları yönetebilmek için</text>
<text text-anchor="middle" x="803.733" y="-1429.8" font-family="Times,serif" font-size="14.00"> &#160;&#160;&#160;yapım (build) adımı olarak paketleyici</text>
<text text-anchor="middle" x="803.733" y="-1415.8" font-family="Times,serif" font-size="14.00"> &#160;&#160;&#160;ekleyin. Ne kadar iyi olduğunuzu ölçmek</text>
<text text-anchor="middle" x="803.733" y="-1401.8" font-family="Times,serif" font-size="14.00"> &#160;&#160;&#160;için Google Page Speed ürününü kullanın.</text>
<text text-anchor="middle" x="803.733" y="-1387.8" font-family="Times,serif" font-size="14.00"> &#160;&#160;&#160;Kodunuzu ortamlara göre davranır hale</text>
<text text-anchor="middle" x="803.733" y="-1373.8" font-family="Times,serif" font-size="14.00"> &#160;&#160;&#160;getirmeyi (envify) ve minimize etmeyi</text>
<text text-anchor="middle" x="803.733" y="-1359.8" font-family="Times,serif" font-size="14.00"> &#160;&#160;&#160;unutmayın.</text>
</g>
<!-- are_you_working_on_production_app_without_bundler&#45;&gt;add_bundler -->
<g id="edge18" class="edge"><title>are_you_working_on_production_app_without_bundler&#45;&gt;add_bundler</title>
<path fill="none" stroke="black" d="M658.817,-1533.25C676.904,-1518.36 700.85,-1498.66 724.057,-1479.56"/>
<polygon fill="black" stroke="black" points="726.391,-1482.17 731.889,-1473.12 721.944,-1476.77 726.391,-1482.17"/>
<text text-anchor="middle" x="717.392" y="-1493.8" font-family="Times,serif" font-size="14.00">evet</text>
</g>
<!-- use_es5 -->
<g id="node16" class="node"><title>use_es5</title>
<polygon fill="none" stroke="black" points="702.872,-1048 376.595,-1048 376.595,-900 702.872,-900 702.872,-1048"/>
<text text-anchor="middle" x="539.733" y="-1032.8" font-family="Times,serif" font-size="14.00">Şimdilik ES2015 kullanmayın.</text>
<text text-anchor="middle" x="539.733" y="-1018.8" font-family="Times,serif" font-size="14.00"> &#160;&#160;&#160;React öğrenmek için kullanmak zorunda değilsiniz.</text>
<text text-anchor="middle" x="539.733" y="-1004.8" font-family="Times,serif" font-size="14.00"> &#160;&#160;&#160;Üçüncü&#45;parti kütüphaneleri dökümanlarında ES2015</text>
<text text-anchor="middle" x="539.733" y="-990.8" font-family="Times,serif" font-size="14.00"> &#160;&#160;&#160;sintaksı kullanıyor olsa da React öğrenirken</text>
<text text-anchor="middle" x="539.733" y="-976.8" font-family="Times,serif" font-size="14.00"> &#160;&#160;&#160;üçüncü&#45;parti kütüphanelerini kullanmak zorunda da</text>
<text text-anchor="middle" x="539.733" y="-962.8" font-family="Times,serif" font-size="14.00"> &#160;&#160;&#160;değilsiniz. Javascript bilginizi güncellemek</text>
<text text-anchor="middle" x="539.733" y="-948.8" font-family="Times,serif" font-size="14.00"> &#160;&#160;&#160;gerektiğini hissederseniz,</text>
<text text-anchor="middle" x="539.733" y="-934.8" font-family="Times,serif" font-size="14.00"> &#160;&#160;&#160;https://leanpub.com/understandinges6/read</text>
<text text-anchor="middle" x="539.733" y="-920.8" font-family="Times,serif" font-size="14.00"> &#160;&#160;&#160;harika bir rehberdir. Şurayı http://babeljs.io/repl</text>
<text text-anchor="middle" x="539.733" y="-906.8" font-family="Times,serif" font-size="14.00"> &#160;&#160;&#160;varsayımlarınızı doğrulamak için kullanabilirsiniz.</text>
</g>
<!-- do_you_know_es2015&#45;&gt;use_es5 -->
<g id="edge22" class="edge"><title>do_you_know_es2015&#45;&gt;use_es5</title>
<path fill="none" stroke="black" d="M561.411,-1216.79C557.546,-1173.68 551.798,-1109.56 547.192,-1058.19"/>
<polygon fill="black" stroke="black" points="550.666,-1057.74 546.287,-1048.09 543.694,-1058.37 550.666,-1057.74"/>
<text text-anchor="middle" x="574.116" y="-1186.8" font-family="Times,serif" font-size="14.00">hayır</text>
</g>
<!-- are_you_using_dangerous_features -->
<g id="node17" class="node"><title>are_you_using_dangerous_features</title>
<polygon fill="none" stroke="black" points="821.733,-1166 567.618,-1116 821.733,-1066 1075.85,-1116 821.733,-1166"/>
<text text-anchor="middle" x="821.733" y="-1125.8" font-family="Times,serif" font-size="14.00">ES2015 içerisinde yer almayan</text>
<text text-anchor="middle" x="821.733" y="-1111.8" font-family="Times,serif" font-size="14.00"> &#160;&#160;&#160;deneysel dil özelliklerini</text>
<text text-anchor="middle" x="821.733" y="-1097.8" font-family="Times,serif" font-size="14.00"> &#160;&#160;&#160;kullanıyor musunuz? (ör: dekoratörler)?</text>
</g>
<!-- do_you_know_es2015&#45;&gt;are_you_using_dangerous_features -->
<g id="edge23" class="edge"><title>do_you_know_es2015&#45;&gt;are_you_using_dangerous_features</title>
<path fill="none" stroke="black" d="M626.402,-1229.93C663.379,-1208.55 710.836,-1181.11 749.713,-1158.64"/>
<polygon fill="black" stroke="black" points="751.472,-1161.66 758.378,-1153.63 747.969,-1155.6 751.472,-1161.66"/>
<text text-anchor="middle" x="712.392" y="-1186.8" font-family="Times,serif" font-size="14.00">evet</text>
</g>
<!-- remove_bundler&#45;&gt;do_you_know_es2015 -->
<g id="edge21" class="edge"><title>remove_bundler&#45;&gt;do_you_know_es2015</title>
<path fill="none" stroke="black" d="M471.165,-1359.65C486.392,-1344.73 502.881,-1328.58 517.762,-1314"/>
<polygon fill="black" stroke="black" points="520.231,-1316.48 524.924,-1306.98 515.332,-1311.48 520.231,-1316.48"/>
</g>
<!-- add_bundler&#45;&gt;do_you_know_es2015 -->
<g id="edge20" class="edge"><title>add_bundler&#45;&gt;do_you_know_es2015</title>
<path fill="none" stroke="black" d="M706.586,-1352.81C681.74,-1337.68 655.578,-1321.74 632.634,-1307.76"/>
<polygon fill="black" stroke="black" points="634.369,-1304.72 624.008,-1302.5 630.727,-1310.7 634.369,-1304.72"/>
</g>
<!-- do_you_update_packages_asap -->
<g id="node18" class="node"><title>do_you_update_packages_asap</title>
<polygon fill="none" stroke="black" points="754.733,-645 438.524,-609 754.733,-573 1070.94,-609 754.733,-645"/>
<text text-anchor="middle" x="754.733" y="-611.8" font-family="Times,serif" font-size="14.00">Bağımlılıklarınızın yeni ve büyük</text>
<text text-anchor="middle" x="754.733" y="-597.8" font-family="Times,serif" font-size="14.00"> &#160;&#160;&#160;güncellemeleri çıkar çıkmaz güncelliyor musunuz?</text>
</g>
<!-- use_es5&#45;&gt;do_you_update_packages_asap -->
<g id="edge24" class="edge"><title>use_es5&#45;&gt;do_you_update_packages_asap</title>
<path fill="none" stroke="black" d="M571.349,-899.803C601.053,-834.774 649.034,-738.594 703.733,-663 707.138,-658.295 710.943,-653.588 714.899,-649.029"/>
<polygon fill="black" stroke="black" points="717.565,-651.298 721.653,-641.523 712.362,-646.616 717.565,-651.298"/>
</g>
<!-- are_you_using_dangerous_features&#45;&gt;do_you_update_packages_asap -->
<g id="edge26" class="edge"><title>are_you_using_dangerous_features&#45;&gt;do_you_update_packages_asap</title>
<path fill="none" stroke="black" d="M799.896,-1069.9C778.928,-1023.9 748.722,-949.843 736.733,-882 729,-838.234 734.417,-826.384 736.733,-782 738.995,-738.66 744.441,-689.427 748.755,-654.773"/>
<polygon fill="black" stroke="black" points="752.271,-654.869 750.052,-644.509 745.326,-653.991 752.271,-654.869"/>
<text text-anchor="middle" x="753.116" y="-752.8" font-family="Times,serif" font-size="14.00">hayır</text>
</g>
<!-- can_you_spend_days_on_your_tooling -->
<g id="node19" class="node"><title>can_you_spend_days_on_your_tooling</title>
<polygon fill="none" stroke="black" points="1042.73,-882 745.308,-832 1042.73,-782 1340.16,-832 1042.73,-882"/>
<text text-anchor="middle" x="1042.73" y="-841.8" font-family="Times,serif" font-size="14.00">Buglar, uyumsuzluklar veya</text>
<text text-anchor="middle" x="1042.73" y="-827.8" font-family="Times,serif" font-size="14.00"> &#160;&#160;&#160;diğer değişiklikler sebebiyle kullandığınız</text>
<text text-anchor="middle" x="1042.73" y="-813.8" font-family="Times,serif" font-size="14.00"> &#160;&#160;&#160;ürünleri düzenlemek zorunda kalıyor musunuz?</text>
</g>
<!-- are_you_using_dangerous_features&#45;&gt;can_you_spend_days_on_your_tooling -->
<g id="edge25" class="edge"><title>are_you_using_dangerous_features&#45;&gt;can_you_spend_days_on_your_tooling</title>
<path fill="none" stroke="black" d="M855.059,-1072.48C894.514,-1022.13 960.188,-938.33 1002.46,-884.395"/>
<polygon fill="black" stroke="black" points="1005.36,-886.364 1008.77,-876.334 999.85,-882.046 1005.36,-886.364"/>
<text text-anchor="middle" x="1000.39" y="-969.8" font-family="Times,serif" font-size="14.00">evet</text>
</g>
<!-- give_it_two_months -->
<g id="node21" class="node"><title>give_it_two_months</title>
<polygon fill="none" stroke="black" points="839.374,-523 482.093,-523 482.093,-375 839.374,-375 839.374,-523"/>
<text text-anchor="middle" x="660.733" y="-507.8" font-family="Times,serif" font-size="14.00">React&#39;ı bir kenara koyalım çünkü</text>
<text text-anchor="middle" x="660.733" y="-493.8" font-family="Times,serif" font-size="14.00"> &#160;&#160;&#160;her güncelleme öncesi yoğun şekilde test edilir</text>
<text text-anchor="middle" x="660.733" y="-479.8" font-family="Times,serif" font-size="14.00"> &#160;&#160;&#160;ancak diğer paketleri güncellemeden önce bir kez daha</text>
<text text-anchor="middle" x="660.733" y="-465.8" font-family="Times,serif" font-size="14.00"> &#160;&#160;&#160;düşünün. Tabi ki bu yeni versiyonları deneyebilirsiniz</text>
<text text-anchor="middle" x="660.733" y="-451.8" font-family="Times,serif" font-size="14.00"> &#160;&#160;&#160;ama en iyisi insanlar sorunları bulup çözene kadar</text>
<text text-anchor="middle" x="660.733" y="-437.8" font-family="Times,serif" font-size="14.00"> &#160;&#160;&#160;bunları bir kaç aylığına ayrı bir branşta saklayın.</text>
<text text-anchor="middle" x="660.733" y="-423.8" font-family="Times,serif" font-size="14.00"> &#160;&#160;&#160;Bir şeyleri kaçırma korkusuyla karar vermeyin!</text>
<text text-anchor="middle" x="660.733" y="-409.8" font-family="Times,serif" font-size="14.00"> &#160;&#160;&#160;Eski dökümanları incelerken, Github&#39;daki güncellemelerin</text>
<text text-anchor="middle" x="660.733" y="-395.8" font-family="Times,serif" font-size="14.00"> &#160;&#160;&#160;etiketlerini inceleyin ör:</text>
<text text-anchor="middle" x="660.733" y="-381.8" font-family="Times,serif" font-size="14.00"> &#160;&#160;&#160;https://github.com/reactjs/react&#45;router/tree/0.13.x/doc</text>
</g>
<!-- do_you_update_packages_asap&#45;&gt;give_it_two_months -->
<g id="edge30" class="edge"><title>do_you_update_packages_asap&#45;&gt;give_it_two_months</title>
<path fill="none" stroke="black" d="M735.028,-574.878C727.512,-562.246 718.572,-547.218 709.542,-532.041"/>
<polygon fill="black" stroke="black" points="712.347,-529.908 704.226,-523.104 706.331,-533.488 712.347,-529.908"/>
<text text-anchor="middle" x="732.392" y="-543.8" font-family="Times,serif" font-size="14.00">evet</text>
</g>
<!-- consider_updating_react -->
<g id="node22" class="node"><title>consider_updating_react</title>
<polygon fill="none" stroke="black" points="1126.72,-523 856.743,-523 856.743,-375 1126.72,-375 1126.72,-523"/>
<text text-anchor="middle" x="991.733" y="-507.8" font-family="Times,serif" font-size="14.00">Bu iyi bir şey.</text>
<text text-anchor="middle" x="991.733" y="-493.8" font-family="Times,serif" font-size="14.00"> &#160;&#160;&#160;Ancak React&#39;ın yeni versiyonlarını</text>
<text text-anchor="middle" x="991.733" y="-479.8" font-family="Times,serif" font-size="14.00"> &#160;&#160;&#160;çıkar çıkmaz denemenizi tavsiye</text>
<text text-anchor="middle" x="991.733" y="-465.8" font-family="Times,serif" font-size="14.00"> &#160;&#160;&#160;ederiz (ayrı bir branşta!).</text>
<text text-anchor="middle" x="991.733" y="-451.8" font-family="Times,serif" font-size="14.00"> &#160;&#160;&#160;Topluluk tarafından sunulan paketlerin,</text>
<text text-anchor="middle" x="991.733" y="-437.8" font-family="Times,serif" font-size="14.00"> &#160;&#160;&#160;aksine Facebook&#39;ta yoğun bir şekilde test</text>
<text text-anchor="middle" x="991.733" y="-423.8" font-family="Times,serif" font-size="14.00"> &#160;&#160;&#160;edilir. Güncelleme notlarına göz atmayı</text>
<text text-anchor="middle" x="991.733" y="-409.8" font-family="Times,serif" font-size="14.00"> &#160;&#160;&#160;unutmayın codemod ürünlerine link</text>
<text text-anchor="middle" x="991.733" y="-395.8" font-family="Times,serif" font-size="14.00"> &#160;&#160;&#160;verebilirler böylece kodunuzun bir kısmını</text>
<text text-anchor="middle" x="991.733" y="-381.8" font-family="Times,serif" font-size="14.00"> &#160;&#160;&#160;otomatik yenileyebilirsiniz.</text>
</g>
<!-- do_you_update_packages_asap&#45;&gt;consider_updating_react -->
<g id="edge31" class="edge"><title>do_you_update_packages_asap&#45;&gt;consider_updating_react</title>
<path fill="none" stroke="black" d="M799.59,-578.096C820.781,-563.968 847.178,-546.371 873.553,-528.787"/>
<polygon fill="black" stroke="black" points="875.73,-531.542 882.109,-523.083 871.847,-525.718 875.73,-531.542"/>
<text text-anchor="middle" x="866.116" y="-543.8" font-family="Times,serif" font-size="14.00">hayır</text>
</g>
<!-- can_you_spend_days_on_your_tooling&#45;&gt;do_you_update_packages_asap -->
<g id="edge27" class="edge"><title>can_you_spend_days_on_your_tooling&#45;&gt;do_you_update_packages_asap</title>
<path fill="none" stroke="black" d="M933.848,-800.283C893.653,-784.821 850.008,-762.674 817.416,-732 794.659,-710.583 778.761,-679.063 768.671,-653.427"/>
<polygon fill="black" stroke="black" points="771.89,-652.044 765.086,-643.923 765.341,-654.515 771.89,-652.044"/>
<text text-anchor="middle" x="828.392" y="-702.8" font-family="Times,serif" font-size="14.00">evet</text>
</g>
<!-- stick_to_es2015 -->
<g id="node20" class="node"><title>stick_to_es2015</title>
<polygon fill="none" stroke="black" points="1087.99,-732 849.477,-732 849.477,-682 1087.99,-682 1087.99,-732"/>
<text text-anchor="middle" x="968.733" y="-716.8" font-family="Times,serif" font-size="14.00">ES2015,</text>
<text text-anchor="middle" x="968.733" y="-702.8" font-family="Times,serif" font-size="14.00"> &#160;&#160;&#160;JSX, obje yayma operatörünü (...)</text>
<text text-anchor="middle" x="968.733" y="-688.8" font-family="Times,serif" font-size="14.00"> &#160;&#160;&#160;kullanmaya devam edin fazlası değil.</text>
</g>
<!-- can_you_spend_days_on_your_tooling&#45;&gt;stick_to_es2015 -->
<g id="edge28" class="edge"><title>can_you_spend_days_on_your_tooling&#45;&gt;stick_to_es2015</title>
<path fill="none" stroke="black" d="M1015.81,-786.246C1006.79,-771.258 996.91,-754.834 988.538,-740.919"/>
<polygon fill="black" stroke="black" points="991.434,-738.943 983.28,-732.178 985.436,-742.551 991.434,-738.943"/>
<text text-anchor="middle" x="1015.12" y="-752.8" font-family="Times,serif" font-size="14.00">hayır</text>
</g>
<!-- stick_to_es2015&#45;&gt;do_you_update_packages_asap -->
<g id="edge29" class="edge"><title>stick_to_es2015&#45;&gt;do_you_update_packages_asap</title>
<path fill="none" stroke="black" d="M915.008,-681.899C888.196,-669.871 855.391,-655.155 826.46,-642.176"/>
<polygon fill="black" stroke="black" points="827.772,-638.929 817.215,-638.029 824.907,-645.316 827.772,-638.929"/>
</g>
<!-- are_you_still_sad -->
<g id="node23" class="node"><title>are_you_still_sad</title>
<polygon fill="none" stroke="black" points="863.733,-338 738.375,-320 863.733,-302 989.092,-320 863.733,-338"/>
<text text-anchor="middle" x="863.733" y="-315.8" font-family="Times,serif" font-size="14.00">Hala üzgün müsünüz?</text>
</g>
<!-- give_it_two_months&#45;&gt;are_you_still_sad -->
<g id="edge32" class="edge"><title>give_it_two_months&#45;&gt;are_you_still_sad</title>
<path fill="none" stroke="black" d="M777.643,-374.859C798.125,-362.046 817.75,-349.768 833.076,-340.18"/>
<polygon fill="black" stroke="black" points="834.956,-343.132 841.577,-334.861 831.243,-337.198 834.956,-343.132"/>
</g>
<!-- consider_updating_react&#45;&gt;are_you_still_sad -->
<g id="edge33" class="edge"><title>consider_updating_react&#45;&gt;are_you_still_sad</title>
<path fill="none" stroke="black" d="M918.017,-374.859C906.381,-363.315 895.184,-352.205 886.013,-343.106"/>
<polygon fill="black" stroke="black" points="888.385,-340.528 878.821,-335.969 883.454,-345.497 888.385,-340.528"/>
</g>
<!-- rant -->
<g id="node24" class="node"><title>rant</title>
<polygon fill="none" stroke="black" points="866.472,-252 628.995,-252 628.995,-146 866.472,-146 866.472,-252"/>
<text text-anchor="middle" x="747.733" y="-236.8" font-family="Times,serif" font-size="14.00">Karşılaştığınız problemlerle</text>
<text text-anchor="middle" x="747.733" y="-222.8" font-family="Times,serif" font-size="14.00"> &#160;&#160;&#160;ilgili yapıcı bir plog gönderisi yazın.</text>
<text text-anchor="middle" x="747.733" y="-208.8" font-family="Times,serif" font-size="14.00"> &#160;&#160;&#160;Kişisel saldırılara kulak asmayın.</text>
<text text-anchor="middle" x="747.733" y="-194.8" font-family="Times,serif" font-size="14.00"> &#160;&#160;&#160;Nazik olun. İnsanlara çözüm bulma</text>
<text text-anchor="middle" x="747.733" y="-180.8" font-family="Times,serif" font-size="14.00"> &#160;&#160;&#160;konusunda yardımcı olun. Farklı bir</text>
<text text-anchor="middle" x="747.733" y="-166.8" font-family="Times,serif" font-size="14.00"> &#160;&#160;&#160;teknoloji çözümü de düşünebilirsiniz</text>
<text text-anchor="middle" x="747.733" y="-152.8" font-family="Times,serif" font-size="14.00"> &#160;&#160;&#160;(ör: Ember).</text>
</g>
<!-- are_you_still_sad&#45;&gt;rant -->
<g id="edge34" class="edge"><title>are_you_still_sad&#45;&gt;rant</title>
<path fill="none" stroke="black" d="M849.042,-303.929C837.94,-292.539 821.919,-276.104 805.882,-259.653"/>
<polygon fill="black" stroke="black" points="808.017,-256.829 798.531,-252.111 803.005,-261.715 808.017,-256.829"/>
<text text-anchor="middle" x="840.392" y="-272.8" font-family="Times,serif" font-size="14.00">evet</text>
</g>
<!-- happy -->
<g id="node25" class="node"><title>happy</title>
<polygon fill="none" stroke="black" points="1001.89,-109 713.575,-109 713.575,-73 1001.89,-73 1001.89,-109"/>
<text text-anchor="middle" x="857.733" y="-93.8" font-family="Times,serif" font-size="14.00">React sizi mutlu ediyor!</text>
<text text-anchor="middle" x="857.733" y="-79.8" font-family="Times,serif" font-size="14.00"> &#160;&#160;&#160;Veya, en azından, bundan sonra üzmeyecektir.</text>
</g>
<!-- are_you_still_sad&#45;&gt;happy -->
<g id="edge35" class="edge"><title>are_you_still_sad&#45;&gt;happy</title>
<path fill="none" stroke="black" d="M867.571,-302.315C870.468,-288.826 874.196,-269.303 875.733,-252 879.903,-205.074 883.28,-192.503 875.733,-146 874.254,-136.886 871.457,-127.231 868.501,-118.644"/>
<polygon fill="black" stroke="black" points="871.75,-117.34 865.027,-109.151 865.177,-119.745 871.75,-117.34"/>
<text text-anchor="middle" x="894.116" y="-194.8" font-family="Times,serif" font-size="14.00">hayır</text>
</g>
<!-- rant&#45;&gt;happy -->
<g id="edge36" class="edge"><title>rant&#45;&gt;happy</title>
<path fill="none" stroke="black" d="M801.767,-145.932C812.548,-135.542 823.38,-125.105 832.602,-116.217"/>
<polygon fill="black" stroke="black" points="835.163,-118.611 839.935,-109.151 830.305,-113.57 835.163,-118.611"/>
</g>
<!-- share -->
<g id="node26" class="node"><title>share</title>
<path fill="none" stroke="black" d="M1043.72,-36C1043.72,-36 671.743,-36 671.743,-36 665.743,-36 659.743,-30 659.743,-24 659.743,-24 659.743,-12 659.743,-12 659.743,-6 665.743,-0 671.743,-0 671.743,-0 1043.72,-0 1043.72,-0 1049.72,-0 1055.72,-6 1055.72,-12 1055.72,-12 1055.72,-24 1055.72,-24 1055.72,-30 1049.72,-36 1043.72,-36"/>
<text text-anchor="middle" x="857.733" y="-20.8" font-family="Times,serif" font-size="14.00">Bu akış şemasını paylaşın: http://bit.ly/react&#45;makes&#45;you&#45;sad.</text>
<text text-anchor="middle" x="857.733" y="-6.8" font-family="Times,serif" font-size="14.00"> &#160;&#160;&#160;Şuradan esinlenilmiştir: https://github.com/petehunt/react&#45;howto.</text>
</g>
<!-- happy&#45;&gt;share -->
<g id="edge37" class="edge"><title>happy&#45;&gt;share</title>
<path fill="none" stroke="black" d="M857.733,-72.8129C857.733,-64.7895 857.733,-55.0475 857.733,-46.0691"/>
<polygon fill="black" stroke="black" points="861.233,-46.0288 857.733,-36.0288 854.233,-46.0289 861.233,-46.0288"/>
</g>
</g>
</svg>
